PathFileType	4	(X/Y/Z)	Patient4_TMGait_0pt2_02_left_04.trc.trc
DataRate	CameraRate	NumFrames	NumMarkers	Units	OrigDataRate	OrigDataStartFrame	OrigNumFrames
42.682926829268	42.682926829268	4	33	mm	42.682926829268	1	       141
Frame#	Time	R.Midfoot.Superior			Sacral			L.Shoulder			Chest			R.Shoulder			Neck			R.ASIS			L.ASIS			R.Thigh.Superior			R.Thigh.Lateral			R.Thigh.Inferior			R.Patella			L.Thigh.Superior			L.Thigh.Lateral			L.Thigh.Inferior			L.Patella			L.Shank.Superior			L.Shank.Lateral			L.Shank.Inferior			R.Shank.Superior			R.Shank.Lateral			R.Shank.Inferior			R.Heel			R.Midfoot.Lateral			R.Toe			L.Heel			L.Midfoot.Lateral			L.Midfoot.Superior			L.Toe			L.Elbow			L.Wrist			R.Elbow			R.Wrist			
		X1	Y1	Z1	X2	Y2	Z2	X3	Y3	Z3	X4	Y4	Z4	X5	Y5	Z5	X6	Y6	Z6	X7	Y7	Z7	X8	Y8	Z8	X9	Y9	Z9	X10	Y10	Z10	X11	Y11	Z11	X12	Y12	Z12	X13	Y13	Z13	X14	Y14	Z14	X15	Y15	Z15	X16	Y16	Z16	X17	Y17	Z17	X18	Y18	Z18	X19	Y19	Z19	X20	Y20	Z20	X21	Y21	Z21	X22	Y22	Z22	X23	Y23	Z23	X24	Y24	Z24	X25	Y25	Z25	X26	Y26	Z26	X27	Y27	Z27	X28	Y28	Z28	X29	Y29	Z29	X30	Y30	Z30	X31	Y31	Z31	X32	Y32	Z32	X33	Y33	Z33	

1	8.760000000000	935.920389999351	96.637097939529	579.244685801306	746.875387619356	997.891662486714	537.447487737392	944.899223235361	1414.462887959629	342.574208725968	1034.409612483661	1356.389685362752	514.746432977193	937.343625162165	1438.740118236396	676.871379304075	915.592142517862	1484.175410083904	493.243947523655	971.970044727362	935.174344048912	664.947915883434	968.863235678450	948.671348368875	391.888939821166	1021.039008575867	736.814520969411	617.123360399578	945.153995646648	617.437605442449	668.669789528691	1022.316708803970	573.495393224759	583.976718116068	1025.649286776860	477.313825765614	585.593373447190	1021.757165982559	740.810606709938	404.608312291795	949.186879984231	627.874436956350	321.183064299557	1041.128119511823	546.406343743415	376.719680122702	1039.048501561768	461.260184047747	364.215156109689	970.222381693778	404.631036980401	349.103798589835	830.874441831850	367.448008400388	293.792394898449	815.551830751946	233.633563580322	333.325612993338	980.896207806950	391.066399718309	586.246943030609	895.890834530917	295.243460503593	643.050958232260	920.414960125067	199.710384012182	574.273731241953	763.567015885468	47.352977749430	541.266451405274	845.811644937047	39.364486387853	615.604015427174	1053.966422569368	39.576280377364	610.112086369716	626.051113668112	175.229636295351	365.744650470789	677.319537416137	124.610675349865	284.962333469222	782.638766397583	125.133058968056	301.962311690597	852.878337377226	30.965063669293	275.746965969354	967.900365557230	1053.549397408527	244.829214695458	1051.875955489299	807.432070745328	258.465817004712	894.658584670746	1110.931571476089	841.708327180316	1087.890412204920	939.958596605304	880.056030278303	
2	8.783428571429	931.468726784727	96.479522854681	578.993976883750	745.846546592920	995.079233204695	541.867455893299	940.935389958722	1411.293737797945	344.232327985174	1033.073745977404	1353.473341601679	515.111357252890	938.594536601444	1435.957567006688	678.759462880816	914.197001200482	1481.484106812183	495.342816786160	972.779379365177	932.644083794043	667.035253635649	966.531407959689	946.237498022361	393.925598135860	1022.818400785155	734.907492099088	618.128472768514	948.179329369796	614.897011084405	669.452301756159	1024.948057997071	571.789205175817	583.743580406707	1028.491771389083	474.946341400282	584.753304452443	1025.930217464221	743.487714006292	408.894967890454	959.651258943385	628.980641506977	324.363356360598	1053.346656286496	550.461606742567	381.885424900124	1053.651942405751	464.274935813782	368.377510938251	983.795146321199	407.071473433479	352.307139592704	843.354246031566	373.776350658923	297.073874983507	825.125801808034	239.957948096664	335.189304757323	982.254609056533	388.880521769921	585.723583366644	896.040556612468	294.307108423858	642.962240968623	918.335435385182	198.672131370537	573.964114308429	759.119054077757	47.801798193661	541.276288694131	841.337519440881	39.582998952550	615.676245859122	1049.461314431732	39.353996264806	610.126662701864	635.673210910456	190.675880687685	368.159732902943	683.119554720301	137.355705094750	286.812334128691	787.947093441015	130.642695242124	303.252544970806	850.149610006907	29.396963171983	275.734987340781	944.434316524560	1050.583344608275	248.914685086057	1008.356002614441	801.392071769052	262.811706598315	911.627643094232	1107.508624305736	844.070660202559	1116.049852331156	953.704503267237	876.566788579108	
3	8.806857142857	926.812951408124	96.354831230777	578.815542111007	744.779311427214	992.410279278173	546.437263051346	936.738022817686	1408.350076552785	345.965096399391	1031.672275661662	1350.649390257989	515.386302029977	940.041691490702	1433.237404053941	680.670548799068	912.757140816301	1478.935433720459	497.537907059836	973.557100115935	930.200900690460	669.022083859658	963.984291607848	943.933236407610	395.890641265869	1024.386690908921	732.985446526133	619.121094550506	950.866415869682	612.433497590066	670.244241621374	1027.193739776018	570.089966655946	583.518617737359	1030.899202514959	472.621813334545	583.927921480390	1029.937385531917	746.529296070117	413.245940257980	970.024519830092	630.391715478172	327.684262788754	1065.505324640264	554.920425406284	387.178593940485	1068.264377634369	467.684209663210	372.696818984291	997.410872822910	409.816614603860	355.698060775930	855.785419662766	380.205764731736	300.679884388547	834.879622668222	246.281172202209	337.372403125526	983.206912709382	386.752217372484	585.221141659766	895.851971511489	293.388826126826	642.918180523905	915.956037230508	197.665031319837	573.693775739198	754.430454409608	48.238566474129	541.312133398658	836.641760073045	39.781374250977	615.774081909284	1044.734695783196	39.144361797269	610.141954148159	645.297367722020	205.185416881779	370.951691347167	689.329954795080	149.613070704118	288.929376756584	793.809861058974	136.327492890399	304.821485732622	848.662740365675	28.219687477450	275.714415386048	920.277434043204	1048.340721330696	253.026146388183	964.032910897787	796.417673752475	267.540614189027	929.694728048658	1104.406967033848	846.209724076632	1145.162408026524	968.736363190954	872.312010685849	
4	8.830285714286	922.046397789214	96.269903838456	578.730548677185	743.705357642955	990.089211599660	551.024675330075	932.387272636814	1405.875591210644	347.734613315446	1030.239567014472	1348.102184981218	515.518449774191	941.715644714982	1430.753349274905	682.522963982815	911.314108115429	1476.719983151727	499.772649729628	974.261688126637	927.998622563444	670.774080843919	961.235238403573	941.951703969512	397.660760932798	1025.572634304348	731.137042985259	620.042707261737	952.942101280235	610.199784939690	671.015424480380	1028.774222850418	568.482817058539	583.314039541849	1032.556371082382	470.470980781384	583.160545712628	1033.495732823101	749.938097028591	417.466226491210	979.763144951374	632.164005074090	331.011795292337	1076.973970233242	559.731819520909	392.375262428114	1082.184502044690	471.503245691740	377.004544001641	1010.483830976198	412.859863460651	359.150604318167	867.669083889658	386.364450157804	304.475433795752	844.632647617940	252.202101840097	339.815333291927	983.519144827811	384.809798374772	584.773165983609	895.168383676475	292.545750863748	642.938787107830	913.237059866507	196.753512660345	573.490023361397	749.594683155352	48.642933895356	541.389178889543	831.820411244452	39.946217271233	615.902110182741	1039.884153561475	38.959435879349	610.158222009019	654.770306969233	217.526614965114	374.001699027596	696.126195807938	160.448708993419	291.211099517255	800.446007548534	141.862743080940	306.629213329592	849.319149760152	27.594628815293	275.657120918295	896.186056209260	1047.230334260207	257.011675340895	920.523107162278	793.134599421440	272.609875018522	948.555790507188	1101.964340374921	847.914803139461	1174.350385987056	985.008871858823	867.106780308518	
